<?xml version="1.0" encoding="utf-8"?>
<!-- Generator: Adobe Illustrator 19.1.0, SVG Export Plug-In . SVG Version: 6.00 Build 0)  -->
<svg version="1.1" id="Layer_1" xmlns="http://www.w3.org/2000/svg" xmlns:xlink="http://www.w3.org/1999/xlink" x="0px" y="0px"
	 width="503px" height="70.5px" viewBox="0 0 503 70.5" style="enable-background:new 0 0 503 70.5;" xml:space="preserve">
<style type="text/css">
	.st0{opacity:0.7;fill:#FFFFFF;}
	.st1{fill:#E76B24;}
</style>
<path class="st0" d="M66,45.5h7.9c4.4,0,7.3-0.5,8.7-1.6c1.4-1.1,2.2-3.1,2.2-6.1V32c0-3-0.7-5-2.2-6.1c-1.4-1.1-4.3-1.6-8.7-1.6H66
	c-4.5,0-7.4,0.6-8.8,1.7c-1.4,1.1-2.1,3.2-2.1,6.3v5.7c0,2.9,0.7,4.9,2.2,6C58.8,45,61.7,45.5,66,45.5z"/>
<path class="st1" d="M91.2,26v-0.6c0-2.5-0.8-4.3-2.5-5.5c-1.6-1.2-4.2-1.7-7.8-1.7H63.5c-6.7,0-11,0.8-12.9,2.4
	c-1.9,1.6-2.8,5-2.8,10.1v8.9c0,4.6,1.1,7.7,3.2,9.5c2.1,1.7,6.3,2.6,12.5,2.6h13.2c6.2,0,10.3-0.6,12.2-1.9
	c1.9-1.2,2.9-3.5,2.9-6.9v-0.7h19.7c0,0.1,0,0.2,0,0.5c0.1,1.9,0.1,3.2,0.1,4.2c0,4.1-0.5,7.4-1.5,10.1c-1,2.7-2.6,4.8-4.8,6.4
	c-2.1,1.5-4.9,2.6-8.3,3.3c-3.5,0.7-8.5,1-15.3,1H58c-6.7,0-11.5-0.4-14.7-1.1c-3.1-0.7-5.8-1.9-8-3.6c-2.6-2-4.4-4.5-5.6-7.5
	c-1.2-2.9-1.8-6.7-1.8-11.2V26.8C27.9,17.6-9,7.7,2.1,7.7c5.6,0,44.6-5.4,56-5.4h23.6c7,0,12.1,0.3,15.5,0.9
	c3.3,0.6,5.9,1.7,7.8,3.2c2,1.5,3.5,3.6,4.5,6.2c1,2.6,1.4,5.9,1.4,9.8c0,0.9,0,1.7,0,2.2c0,0.5,0,1-0.1,1.4H91.2z"/>
<path class="st1" d="M190,18.5h-50.2v9.6H187v13.4h-47.3v9.8h51v15.4h-70.4V3H190V18.5z"/>
<path class="st1" d="M253.5,3c10.1,0,17,1.5,20.6,4.5c3.7,3,5.5,8.5,5.5,16.4c0,5.5-0.8,9.6-2.4,12.3c-1.6,2.7-4.3,4.5-8.2,5.4
	c3.4,0.8,5.9,2.2,7.6,4.2c1.7,2,2.5,4.7,2.5,7.9v13.1h-19.5V57c0-2.5-0.6-4.2-1.8-5.2c-1.2-0.9-3.5-1.4-7-1.4h-29v16.3h-19.5V3
	H253.5z M252.7,18.9h-30.9v15.6h30.9c2.6,0,4.4-0.6,5.5-1.8c1-1.2,1.6-3.4,1.6-6.6c0-2.5-0.6-4.3-1.7-5.5
	C257,19.5,255.2,18.9,252.7,18.9z"/>
<path class="st1" d="M312.2,66.7h-19.5V3h19.5V66.7z"/>
<path class="st1" d="M421.6,45.6l19.2,0v1.2c0,2.4,0.6,4,1.8,4.9c1.2,0.8,3.6,1.3,7.4,1.3h24.4c2.4,0,4.1-0.4,5.1-1.2
	c1-0.8,1.5-2.2,1.5-4c0-1.9-0.6-3.3-1.8-4.1c-1.2-0.8-3.7-1.4-7.6-1.7L441,41.1c-7.6-0.2-12.8-1.7-15.5-4.4c-2.7-2.7-4-7.6-4-14.6
	c0-3.6,0.4-6.7,1.1-9c0.7-2.4,1.9-4.3,3.4-5.9c1.9-1.8,4.3-3,7.3-3.8c3-0.7,7.9-1.1,14.6-1.1h29.7c7.4,0,12.7,1.3,15.9,4
	c3.2,2.7,4.9,7,4.9,13c0,0.4,0,0.8,0,1.3c0,0.5-0.1,1.2-0.1,2.2h-18.7v-0.3c0-2.1-0.5-3.7-1.6-4.8c-1.1-1-2.7-1.6-4.8-1.6h-22.4
	c-3.7,0-6.2,0.4-7.4,1.1c-1.2,0.7-1.8,2-1.8,3.9c0,1.8,0.5,3.1,1.6,4c1.1,0.8,3.1,1.3,6,1.6l32,0.5c7.3,0.2,12.4,1.8,15.4,4.9
	c3,3.1,4.5,8.3,4.5,15.8c0,4.4-0.6,7.8-1.7,10.3c-1.1,2.4-2.9,4.5-5.5,6.2c-1.7,1.1-4,1.9-7,2.3c-2.9,0.5-7.2,0.7-12.8,0.7H448
	c-10.6,0-17.8-1.2-21.4-3.6c-3.6-2.4-5.4-6.8-5.4-13.3c0-0.4,0-1,0.1-1.9C421.4,47.9,421.5,46.8,421.6,45.6z"/>
<g>
	<g>
		<path class="st1" d="M409,14.1c-1.1-3.1-2.8-5.6-5.2-7.4c-2.1-1.6-5-2.7-8.5-3.4c-3.6-0.7-9-1-16.2-1h-22.9
			c-7.2,0-12.6,0.3-16.2,1c-3.6,0.7-6.4,1.8-8.5,3.4c-2.5,1.8-4.2,4.3-5.3,7.4c-1.1,3.1-1.6,7.3-1.6,12.7v17.4
			c0,4.9,0.5,8.8,1.6,11.8c1.1,2.9,2.8,5.3,5.3,7.2c2.2,1.6,5,2.8,8.4,3.4c3.4,0.7,8.9,1,16.3,1h22.8c7.4,0,12.8-0.3,16.3-1
			c3.5-0.7,6.3-1.8,8.5-3.4c2.4-1.8,4.1-4.3,5.2-7.3c1.1-3.1,1.6-7.1,1.6-12V26C410.7,21.1,410.1,17.2,409,14.1z M391,39.4
			c0,4.7-1.1,7.9-3.4,9.6c-2.3,1.7-6.8,2.6-13.7,2.6h-12.4c-6.8,0-11.4-0.8-13.7-2.6c-2.3-1.7-3.4-4.9-3.4-9.5v-8.9
			c0-4.9,1.1-8.2,3.3-9.9c2.2-1.7,6.8-2.6,13.8-2.6h12.5c6.9,0,11.4,0.9,13.7,2.6c2.3,1.7,3.4,4.9,3.4,9.6V39.4z"/>
	</g>
</g>
</svg>
